<?xml version="1.0" standalone="no"?><!DOCTYPE svg PUBLIC "-//W3C//DTD SVG 1.1//EN" "http://www.w3.org/Graphics/SVG/1.1/DTD/svg11.dtd"><svg t="1748332800000" class="icon" viewBox="0 0 1024 1024" version="1.1" xmlns="http://www.w3.org/2000/svg" p-id="10301" xmlns:xlink="http://www.w3.org/1999/xlink" width="200" height="200"><path d="M512 128C300.8 128 128 300.8 128 512s172.8 384 384 384 384-172.8 384-384S723.2 128 512 128z m0 704c-176 0-320-144-320-320s144-320 320-320 320 144 320 320-144 320-320 320z" fill="#666666" p-id="10302"></path><path d="M704 448H384v64h320V448zM704 576H384v64h320V576zM448 704h192v64H448V704z" fill="#666666" p-id="10303"></path><path d="M640 320l-32 32 32 32-64 64-32-32-32 32-64-64 32-32-32-32h192zM448 320l32 32-32 32 64 64 32-32 32 32 64-64-32-32 32-32H448z" fill="#666666" p-id="10304"></path></svg>
