<?xml version="1.0" standalone="no"?><!DOCTYPE svg PUBLIC "-//W3C//DTD SVG 1.1//EN" "http://www.w3.org/Graphics/SVG/1.1/DTD/svg11.dtd"><svg t="1743594192902" class="icon" viewBox="0 0 1204 1024" version="1.1" xmlns="http://www.w3.org/2000/svg" p-id="5262" xmlns:xlink="http://www.w3.org/1999/xlink" width="235.15625" height="200"><path d="M1144.470588 843.294118h-63.247059a209.859765 209.859765 0 0 1-415.623529 0h-126.494118a209.859765 209.859765 0 0 1-415.623529 0H60.235294a60.235294 60.235294 0 0 1-60.235294-60.235294V301.176471l263.830588-180.705883H421.647059V60.235294a60.235294 60.235294 0 0 1 60.235294-60.235294h662.588235a60.235294 60.235294 0 0 1 60.235294 60.235294v722.82353a60.235294 60.235294 0 0 1-60.235294 60.235294zM421.647059 361.411765V240.941176H301.176471L120.470588 361.411765v361.411764h21.082353A208.293647 208.293647 0 0 1 421.647059 623.375059V361.411765z m-90.352941 361.411764A90.352941 90.352941 0 1 0 421.647059 813.176471 90.352941 90.352941 0 0 0 331.294118 722.823529z m542.117647 180.705883a90.352941 90.352941 0 1 0-90.352941-90.352941 90.352941 90.352941 0 0 0 90.352941 90.352941zM1084.235294 120.470588H542.117647v602.352941h141.552941a209.679059 209.679059 0 0 1 379.482353 0H1084.235294V120.470588zM180.705882 421.647059l180.705883-120.470588v240.941176H180.705882V421.647059z" p-id="5263"></path></svg>