<?xml version="1.0" standalone="no"?><!DOCTYPE svg PUBLIC "-//W3C//DTD SVG 1.1//EN" "http://www.w3.org/Graphics/SVG/1.1/DTD/svg11.dtd"><svg t="1748332800000" class="icon" viewBox="0 0 1024 1024" version="1.1" xmlns="http://www.w3.org/2000/svg" p-id="9401" xmlns:xlink="http://www.w3.org/1999/xlink" width="200" height="200"><path d="M832 192H192c-35.2 0-64 28.8-64 64v512c0 35.2 28.8 64 64 64h640c35.2 0 64-28.8 64-64V256c0-35.2-28.8-64-64-64z m0 576H192V256h640v512z" fill="#666666" p-id="9402"></path><path d="M320 384h384v64H320zM320 512h384v64H320zM320 640h256v64H320z" fill="#666666" p-id="9403"></path><path d="M640 640l-64 96 32 32 96-64-64-64z" fill="#666666" p-id="9404"></path></svg>
