<?xml version="1.0" standalone="no"?><!DOCTYPE svg PUBLIC "-//W3C//DTD SVG 1.1//EN" "http://www.w3.org/Graphics/SVG/1.1/DTD/svg11.dtd"><svg t="1744633383556" class="icon" viewBox="0 0 1024 1024" version="1.1" xmlns="http://www.w3.org/2000/svg" p-id="5419" xmlns:xlink="http://www.w3.org/1999/xlink" width="200" height="200"><path d="M434.36 922c0 18.85-13.91 34.6-31.97 37.51v0.49h-270.9C93.87 960 63 928.1 63 888.58V71.94C63 32.64 93.68 0.52 131.48 0.52h760.03c37.64 0 68.48 31.9 68.48 71.42V447.4c0 20.07-16.42 36.5-36.5 36.5-20.07 0-36.5-16.42-36.5-36.5V268.16c0-0.73 0.03-1.45 0.07-2.17l-1.59-190.51-745.95 1.99-2.32 807.73 74.92-0.34c2.58-0.56 5.26-0.86 8-0.86h176.24c0.3 0 0.61 0.02 0.91 0.02l5.12-0.02v0.49c18.06 2.91 31.97 18.66 31.97 37.51zM265 188c-22 0-40 18-40 40s18 40 40 40h496c22 0 40-18 40-40s-18-40-40-40H265z m283 249.94c0-22-18-40-40-40H264.24c-22 0-40 18-40 40s18 40 40 40H508c22 0 40-18 40-40zM436 608H263.76c-22 0-40 18-40 40s18 40 40 40H436c22 0 40-18 40-40s-18-40-40-40z m236.79-18.99L521.51 745.78c-12.78 13.34-12.78 34.47 0 47.81l210.94 220.15c12.78 13.34 33.03 13.34 44.75 0l22.37-23.35-112.92-117.85c-4.26-4.45-4.26-11.12 0-15.56 4.26-4.45 10.65-4.45 14.91 0l112.93 117.86 29.83-31.13-150.22-157.9c-4.26-4.45-4.26-11.12 0-15.57 4.26-4.45 10.65-4.45 14.92 0L860.3 928.13 890.13 897 777.2 778.03c-4.26-4.45-4.26-11.12 0-15.56 4.26-4.45 10.65-4.45 14.91 0L906.1 880.33l41.55-46.7-230.11-244.62c-12.79-13.35-33.03-13.35-44.75 0z m340.92 126.75l-90.56-94.51c-12.78-13.34-33.03-13.34-44.74 0l-51.14 54.48 135.3 142.32 51.14-53.37c12.78-14.45 12.78-35.58 0-48.92z" p-id="5420"></path></svg>