<?xml version="1.0" standalone="no"?><!DOCTYPE svg PUBLIC "-//W3C//DTD SVG 1.1//EN" "http://www.w3.org/Graphics/SVG/1.1/DTD/svg11.dtd"><svg t="1747894830951" class="icon" viewBox="0 0 1024 1024" version="1.1" xmlns="http://www.w3.org/2000/svg" p-id="13909" xmlns:xlink="http://www.w3.org/1999/xlink" width="256" height="256"><path d="M675.498667 1022.634667c-192.170667 0-348.444444-155.989333-348.444445-347.761778 0-191.829333 156.273778-347.875556 348.444445-347.875556 192.113778 0 348.387556 156.046222 348.387555 347.875556 0 191.772444-156.273778 347.761778-348.387555 347.761778z m0-611.100445c-145.692444 0-264.248889 118.101333-264.248889 263.338667 0 145.123556 118.556444 263.281778 264.248889 263.281778 145.635556 0 264.192-118.158222 264.192-263.281778 0-145.237333-118.556444-263.338667-264.192-263.338667z m191.032889 272.554667l-306.005334 139.491555c-11.264 5.12-20.366222-0.682667-20.423111-12.970666l-0.113778-100.693334 247.864889-35.100444-247.864889-35.100444 0.113778-100.693334c0.056889-12.231111 9.159111-18.090667 20.423111-12.970666l306.005334 139.491555c11.320889 5.12 11.320889 13.425778 0 18.545778zM92.330667 602.851556v375.011555a46.193778 46.193778 0 0 1-92.273778 0V46.023111c0-25.315556 20.707556-46.08 46.136889-46.08 19.171556 0 35.669333 11.946667 42.609778 28.728889l374.044444 108.544c22.129778 3.640889 44.316444 24.120889 52.906667 52.224A84.309333 84.309333 0 0 1 494.933333 274.090667l-402.602666 328.760889z m0-472.462223v347.534223l314.311111-256.568889-314.311111-90.965334z" fill="#bfcbd9" p-id="13910"></path></svg>