<?xml version="1.0" standalone="no"?><!DOCTYPE svg PUBLIC "-//W3C//DTD SVG 1.1//EN" "http://www.w3.org/Graphics/SVG/1.1/DTD/svg11.dtd"><svg t="1748332800000" class="icon" viewBox="0 0 1024 1024" version="1.1" xmlns="http://www.w3.org/2000/svg" p-id="8201" xmlns:xlink="http://www.w3.org/1999/xlink" width="200" height="200"><path d="M896 384h-128V256c0-35.2-28.8-64-64-64H320c-35.2 0-64 28.8-64 64v128H128c-35.2 0-64 28.8-64 64v384c0 35.2 28.8 64 64 64h768c35.2 0 64-28.8 64-64V448c0-35.2-28.8-64-64-64zM320 256h384v128H320V256z m576 576H128V448h768v384z" fill="#666666" p-id="8202"></path><path d="M448 544H320v192h128V544z m-64 128h-64v-64h64v64zM576 544H448v192h128V544z m-64 128h-64v-64h64v64zM704 544H576v128h128V544z m-64 64h-64v-64h64v64z" fill="#666666" p-id="8203"></path></svg>
