<?xml version="1.0" standalone="no"?><!DOCTYPE svg PUBLIC "-//W3C//DTD SVG 1.1//EN" "http://www.w3.org/Graphics/SVG/1.1/DTD/svg11.dtd"><svg t="1748332800000" class="icon" viewBox="0 0 1024 1024" version="1.1" xmlns="http://www.w3.org/2000/svg" p-id="10001" xmlns:xlink="http://www.w3.org/1999/xlink" width="200" height="200"><path d="M512 128c-70.4 0-128 57.6-128 128s57.6 128 128 128 128-57.6 128-128-57.6-128-128-128z m0 192c-35.2 0-64-28.8-64-64s28.8-64 64-64 64 28.8 64 64-28.8 64-64 64z" fill="#666666" p-id="10002"></path><path d="M320 512l-64 192h512l-64-192H320z m384 64l32 96H288l32-96h384z" fill="#666666" p-id="10003"></path><path d="M256 512h64l32 96H224l32-96zM704 512h64l32 96H672l32-96z" fill="#666666" p-id="10004"></path></svg>
