<?xml version="1.0" standalone="no"?><!DOCTYPE svg PUBLIC "-//W3C//DTD SVG 1.1//EN" "http://www.w3.org/Graphics/SVG/1.1/DTD/svg11.dtd"><svg t="1748332800000" class="icon" viewBox="0 0 1024 1024" version="1.1" xmlns="http://www.w3.org/2000/svg" p-id="9901" xmlns:xlink="http://www.w3.org/1999/xlink" width="200" height="200"><path d="M512 128C300.8 128 128 300.8 128 512s172.8 384 384 384 384-172.8 384-384S723.2 128 512 128z m0 704c-176 0-320-144-320-320s144-320 320-320 320 144 320 320-144 320-320 320z" fill="#666666" p-id="9902"></path><path d="M512 384c-70.4 0-128 57.6-128 128s57.6 128 128 128 128-57.6 128-128-57.6-128-128-128z m0 192c-35.2 0-64-28.8-64-64s28.8-64 64-64 64 28.8 64 64-28.8 64-64 64z" fill="#666666" p-id="9903"></path><path d="M384 384v192h64V512h128v64h64V384H384z" fill="#666666" p-id="9904"></path></svg>
