<?xml version="1.0" standalone="no"?><!DOCTYPE svg PUBLIC "-//W3C//DTD SVG 1.1//EN" "http://www.w3.org/Graphics/SVG/1.1/DTD/svg11.dtd"><svg t="1744636550255" class="icon" viewBox="0 0 1024 1024" version="1.1" xmlns="http://www.w3.org/2000/svg" p-id="7590" xmlns:xlink="http://www.w3.org/1999/xlink" width="200" height="200"><path d="M380.662473 864.560864H196.62521a83.591837 83.591837 0 0 1-83.4812-83.4812V156.673229a83.591837 83.591837 0 0 1 83.4812-83.4812h480.30886a83.591837 83.591837 0 0 1 83.4812 83.4812v225.771717a36.596014 36.596014 0 0 0 73.192029 0V156.673229A156.84533 156.84533 0 0 0 676.93407 0H196.62521A156.84533 156.84533 0 0 0 39.951981 156.673229v624.406435a156.84533 156.84533 0 0 0 156.673229 156.673229h184.037263a36.596014 36.596014 0 0 0 0-73.192029z" p-id="7591"></path><path d="M627.909916 228.14425H243.657911a36.596014 36.596014 0 0 0 0 73.192029h384.252005a36.596014 36.596014 0 0 0 0-73.192029zM449.662617 410.362161H243.657911a36.596014 36.596014 0 1 0 0 73.192029h206.004706a36.596014 36.596014 0 0 0 0-73.192029zM690.947995 437.75078c-161.885426 0-293.12461 131.251477-293.12461 293.12461S529.062569 1024 690.947995 1024 984.048019 892.773109 984.048019 730.87539 852.821128 437.75078 690.947995 437.75078z m0 530.144346c-130.907275 0-237.019736-106.112461-237.019736-237.019736s106.112461-237.019736 237.019736-237.019736 237.007443 106.112461 237.007443 237.019736S821.781513 967.895126 690.923409 967.895126z" p-id="7592"></path><path d="M811.590684 732.313661l0.430252-26.405186h-87.464105l61.353949-99.74473-24.942329-13.595966-70.450708 118.110348-64.107563-117.27443-30.080768 7.683074 60.173829 104.797119h-86.197935v25.593853l106.862329 0.417959v52.035919h-106.862329v28.113901h106.862329v117.311309h28.408932v-118.171813l106.444369 0.430252v-27.683649h-106.444369v-51.2l106.014117-0.41796z" p-id="7593"></path></svg>