<?xml version="1.0" standalone="no"?><!DOCTYPE svg PUBLIC "-//W3C//DTD SVG 1.1//EN" "http://www.w3.org/Graphics/SVG/1.1/DTD/svg11.dtd"><svg t="1748332800000" class="icon" viewBox="0 0 1024 1024" version="1.1" xmlns="http://www.w3.org/2000/svg" p-id="9001" xmlns:xlink="http://www.w3.org/1999/xlink" width="200" height="200"><path d="M832 192H192c-35.2 0-64 28.8-64 64v512c0 35.2 28.8 64 64 64h640c35.2 0 64-28.8 64-64V256c0-35.2-28.8-64-64-64z m0 576H192V256h640v512z" fill="#666666" p-id="9002"></path><path d="M512 384c-53.02 0-96 42.98-96 96s42.98 96 96 96 96-42.98 96-96-42.98-96-96-96z m0 128c-17.67 0-32-14.33-32-32s14.33-32 32-32 32 14.33 32 32-14.33 32-32 32z" fill="#666666" p-id="9003"></path><path d="M384 384v192h64V448h128v128h64V384H384z" fill="#666666" p-id="9004"></path></svg>
