<?xml version="1.0" standalone="no"?><!DOCTYPE svg PUBLIC "-//W3C//DTD SVG 1.1//EN" "http://www.w3.org/Graphics/SVG/1.1/DTD/svg11.dtd"><svg t="1748332800000" class="icon" viewBox="0 0 1024 1024" version="1.1" xmlns="http://www.w3.org/2000/svg" p-id="9101" xmlns:xlink="http://www.w3.org/1999/xlink" width="200" height="200"><path d="M744 192h-464c-48.6 0-88 39.4-88 88v464c0 48.6 39.4 88 88 88h464c48.6 0 88-39.4 88-88V280c0-48.6-39.4-88-88-88z m24 552c0 13.2-10.8 24-24 24H280c-13.2 0-24-10.8-24-24V280c0-13.2 10.8-24 24-24h464c13.2 0 24 10.8 24 24v464z" fill="#666666" p-id="9102"></path><path d="M512 448l-96 96h64v128h64V544h64l-96-96z" fill="#666666" p-id="9103"></path></svg>
