<?xml version="1.0" standalone="no"?><!DOCTYPE svg PUBLIC "-//W3C//DTD SVG 1.1//EN" "http://www.w3.org/Graphics/SVG/1.1/DTD/svg11.dtd"><svg t="1748332800000" class="icon" viewBox="0 0 1024 1024" version="1.1" xmlns="http://www.w3.org/2000/svg" p-id="9601" xmlns:xlink="http://www.w3.org/1999/xlink" width="200" height="200"><path d="M832 192H192c-35.2 0-64 28.8-64 64v512c0 35.2 28.8 64 64 64h640c35.2 0 64-28.8 64-64V256c0-35.2-28.8-64-64-64z m0 576H192V256h640v512z" fill="#666666" p-id="9602"></path><path d="M384 512h64v128h-64zM576 512h64v128h-64zM448 384h128v64H448z" fill="#666666" p-id="9603"></path><path d="M448 704h128v64H448zM320 640h384v-64H320z" fill="#666666" p-id="9604"></path></svg>
