<?xml version="1.0" standalone="no"?><!DOCTYPE svg PUBLIC "-//W3C//DTD SVG 1.1//EN" "http://www.w3.org/Graphics/SVG/1.1/DTD/svg11.dtd"><svg t="1748332800000" class="icon" viewBox="0 0 1024 1024" version="1.1" xmlns="http://www.w3.org/2000/svg" p-id="9701" xmlns:xlink="http://www.w3.org/1999/xlink" width="200" height="200"><path d="M512 128c-70.4 0-128 57.6-128 128s57.6 128 128 128 128-57.6 128-128-57.6-128-128-128z m0 192c-35.2 0-64-28.8-64-64s28.8-64 64-64 64 28.8 64 64-28.8 64-64 64z" fill="#666666" p-id="9702"></path><path d="M832 384H192c-35.2 0-64 28.8-64 64v320c0 35.2 28.8 64 64 64h640c35.2 0 64-28.8 64-64V448c0-35.2-28.8-64-64-64z m0 384H192V448h640v320z" fill="#666666" p-id="9703"></path><path d="M320 576h128v64H320zM576 576h128v64H576zM320 640h128v64H320zM576 640h128v64H576z" fill="#666666" p-id="9704"></path></svg>
